<svg xmlns="http://www.w3.org/2000/svg" viewBox="-1.5 -1.5 18.00 18.00" stroke="#ffffff">
	<path
		transform="translate(-1.5, -1.5), scale(0.5625)"
		d="M16,30.523954159447126C18.136403310506232,30.554143669415843,19.46426121788223,28.11498740288923,21.420587764705463,27.255966475409107C23.460806436627436,26.360108604103004,26.159394297897283,26.93179076308545,27.745333235510785,25.366590698875918C29.31566001093189,23.816798641044464,29.075959806841915,21.24515071920559,29.66534316412929,19.119025402514556C30.27990253685403,16.902080820004507,31.990360318385658,14.703281844196592,31.310567431394816,12.505462894573775C30.621806132674095,10.27864842936797,27.613275596109954,9.719713886988139,26.187705868135126,7.87557567640113C24.734303434045934,5.99543266307294,25.069264496573428,2.6439922908515623,22.913819807858683,1.6433052369358112C20.747551899481017,0.6375933935392266,18.294649468701998,2.483442737402676,16,3.1458299191934724C14.184934757103555,3.669777462121974,12.416229592631549,4.214195825722577,10.773813436265856,5.147711777927192C9.201138257719348,6.041588376205445,8.044346873261247,7.420651738259611,6.588907055902418,8.494903816783218C4.668145619856492,9.912607208164058,1.2894711073166911,10.193809594345899,0.7778846689412848,12.525651509271588C0.26423270813207533,14.866908200325152,3.6027051701659727,16.38253223498287,4.359455609316868,18.656878295522286C5.023439693418519,20.65242333627824,3.6271070956573164,23.1785275093994,4.8836052155242164,24.865029020930578C6.13163544273972,26.54016472655225,8.791082932906566,26.15613383729851,10.652689182427176,27.103805326812676C12.562211558662666,28.075869056730706,13.857509161634699,30.49367862663708,16,30.523954159447126"
		fill="#d1d1d1"
	/>
	<path
		d="M5 7.5C5 7.22386 5.22386 7 5.5 7H9.5C9.77614 7 10 7.22386 10 7.5C10 7.77614 9.77614 8 9.5 8H5.5C5.22386 8 5 7.77614 5 7.5Z"
		fill="#000000"
		stroke="#000000"
	/>
</svg>
